<?xml version="1.0" encoding="utf-8"?>
<!-- Generator: Adobe Illustrator 23.0.3, SVG Export Plug-In . SVG Version: 6.00 Build 0)  -->
<svg version="1.1" id="Layer_1" xmlns="http://www.w3.org/2000/svg" xmlns:xlink="http://www.w3.org/1999/xlink" x="0px" y="0px"
	 viewBox="0 0 24 24" style="enable-background:new 0 0 24 24;" xml:space="preserve">
<style type="text/css">
	.st0{fill:#E86363;}
</style>
<path class="st0" d="M13.3,2.3c-0.2,0-0.3,0.1-0.4,0.2L7.2,7.6C7.1,7.7,7,7.8,6.9,7.8c-0.1,0-0.3,0.1-0.4,0H2.8
	c-0.1,0-0.2,0-0.3,0.1C2.3,8,2.2,8.1,2.2,8.2C2.1,8.2,2,8.4,2,8.5c0,0.1-0.1,0.2-0.1,0.4v6.3c0,0.1,0,0.3,0.1,0.4
	c0,0.1,0.1,0.2,0.2,0.3c0.1,0.1,0.2,0.2,0.3,0.2c0.1,0,0.2,0.1,0.3,0.1h3.7c0.1,0,0.3,0,0.4,0c0.1,0,0.2,0.1,0.3,0.2l5.7,5.1
	c0.4,0.3,0.8,0.2,0.8-0.2V2.7c0-0.1,0-0.1,0-0.2c0-0.1,0-0.1-0.1-0.1c0,0-0.1-0.1-0.1-0.1C13.4,2.3,13.4,2.3,13.3,2.3z M20.7,4.2
	l-1.3,1.4C20.4,7.5,21,9.7,21,12c0,2.3-0.6,4.5-1.7,6.4l1.3,1.4c1.5-2.3,2.3-5,2.3-7.8C22.9,9.2,22.1,6.5,20.7,4.2z M17.4,7.7
	l-1.3,1.4C16.7,9.9,17,11,17,12s-0.3,2.1-0.9,2.9l1.3,1.4c0.9-1.2,1.4-2.8,1.4-4.3C18.8,10.4,18.3,8.9,17.4,7.7L17.4,7.7z"/>
</svg>
