<svg width="24" height="24" viewBox="0 0 24 24" fill="none" xmlns="http://www.w3.org/2000/svg">
<path d="M20.5712 5L19.228 6.34475C20.3622 8.11889 20.9648 10.1806 20.9648 12.2862C20.9648 14.3919 20.3622 16.4536 19.228 18.2277L20.5667 19.5597C22.0345 17.4159 22.8202 14.8787 22.821 12.2806C22.8218 9.68246 22.0376 7.14473 20.5712 5ZM17.3215 8.24225L16 9.575C16.5867 10.3581 16.9038 11.3103 16.9038 12.2889C16.9038 13.2674 16.5867 14.2196 16 15.0027L17.317 16.3197C18.2436 15.1782 18.7499 13.753 18.7513 12.2827C18.7526 10.8124 18.2489 9.3863 17.3245 8.243L17.3215 8.24225Z" fill="#DCCBCB"/>
<path fill-rule="evenodd" clip-rule="evenodd" d="M13.5 15C13.5 15.5 13.5 16.5 13.5 17C13.5 18 13.5 20 13.5 21C13.5 21 10.8522 18.8054 10.5 18.5L6.99997 15.5H3.49997C2.39611 15.5 2.5 14.7605 2.49997 13.5C2.49997 12 2.49999 11.5 2.5 10C2.5 8.75086 2.39611 8.50001 3.49997 8.50001H6.99997L10.5 5.50003L13.5 2.99999C13.5 3.5 13.5 3.00001 13.5 4.50001C13.5 4.98182 13.5 8.78433 13.5 9.50003C13.5 11.0022 13.5 13.5 13.5 15Z" stroke="#DCCBCB" stroke-width="1.2" stroke-linecap="round" stroke-linejoin="round"/>
</svg>
