<svg width="20" height="19" viewBox="0 0 20 19" fill="none" xmlns="http://www.w3.org/2000/svg">
<path d="M2 2.75C2 2.02065 2.28973 1.32118 2.80546 0.805456C3.32118 0.289731 4.02065 0 4.75 0H10.25C10.9793 0 11.6788 0.289731 12.1945 0.805456C12.7103 1.32118 13 2.02065 13 2.75V9.25C13 9.97935 12.7103 10.6788 12.1945 11.1945C11.6788 11.7103 10.9793 12 10.25 12H4.75C4.02065 12 3.32118 11.7103 2.80546 11.1945C2.28973 10.6788 2 9.97935 2 9.25V2.75Z" fill="#E86363"/>
<path d="M2.194 11.995C1.81616 12.1202 1.4509 12.2806 1.103 12.474C0.603 12.762 0 13.25 0 14C0 14.75 0.603 15.238 1.103 15.526C1.659 15.846 2.414 16.109 3.282 16.32C5.016 16.741 7.367 16.996 9.939 17L9.223 17.717C9.09052 17.8592 9.0184 18.0472 9.02182 18.2415C9.02525 18.4358 9.10396 18.6212 9.24138 18.7586C9.37879 18.896 9.56418 18.9747 9.75848 18.9782C9.95278 18.9816 10.1408 18.9095 10.283 18.777L12.28 16.78C12.4205 16.6394 12.4993 16.4487 12.4993 16.25C12.4993 16.0512 12.4205 15.8606 12.28 15.72L10.284 13.72C10.2144 13.6503 10.1317 13.5949 10.0408 13.5571C9.94977 13.5193 9.85223 13.4998 9.75371 13.4998C9.65518 13.4997 9.55761 13.519 9.46655 13.5566C9.37549 13.5942 9.29273 13.6494 9.223 13.719C9.15327 13.7886 9.09793 13.8712 9.06014 13.9622C9.02235 14.0532 9.00285 14.1508 9.00276 14.2493C9.00267 14.3478 9.02198 14.4454 9.0596 14.5364C9.09722 14.6275 9.1524 14.7103 9.222 14.78L9.942 15.5C7.452 15.496 5.225 15.248 3.637 14.862C2.83 14.666 2.231 14.444 1.851 14.226C1.73691 14.1652 1.63161 14.0892 1.538 14C1.584 13.952 1.675 13.875 1.851 13.774C2.231 13.556 2.831 13.334 3.637 13.138C3.865 13.082 4.107 13.029 4.36 12.98C3.54994 12.8965 2.78935 12.5506 2.194 11.995Z" fill="#E86363"/>
<path d="M12.023 12.555C13.711 12.649 15.207 12.856 16.363 13.138C17.17 13.334 17.769 13.556 18.149 13.774C18.324 13.875 18.415 13.952 18.462 14C18.4571 14.0047 18.4521 14.0094 18.447 14.014C18.345 14.111 18.156 14.239 17.847 14.379C17.232 14.658 16.304 14.915 15.125 15.113C14.9287 15.146 14.7536 15.2556 14.6382 15.4177C14.5228 15.5799 14.4765 15.7812 14.5095 15.9775C14.5425 16.1737 14.6521 16.3488 14.8143 16.4643C14.9764 16.5797 15.1777 16.626 15.374 16.593C16.612 16.384 17.684 16.1 18.466 15.745C18.855 15.569 19.212 15.358 19.483 15.099C19.755 14.839 20 14.469 20 14C20 13.25 19.397 12.762 18.897 12.474C18.341 12.154 17.586 11.891 16.718 11.68C15.793 11.455 14.693 11.278 13.477 11.16C13.128 11.7483 12.6253 12.2306 12.023 12.555ZM18.509 13.942L18.511 13.939L18.509 13.942Z" fill="#E86363"/>
<path d="M18 2.24603C18 2.10481 17.9601 1.96647 17.8849 1.84692C17.8098 1.72737 17.7024 1.63147 17.5752 1.57025C17.4479 1.50902 17.306 1.48497 17.1656 1.50085C17.0253 1.51674 16.8923 1.57191 16.782 1.66003L13.999 3.88603V8.11103L16.782 10.332C16.8923 10.4201 17.0253 10.4753 17.1656 10.4912C17.306 10.5071 17.4479 10.483 17.5752 10.4218C17.7024 10.3606 17.8098 10.2647 17.8849 10.1451C17.9601 10.0256 18 9.88724 18 9.74603V2.24603Z" fill="#E86363"/>
</svg>
