<svg width="20" height="21" viewBox="0 0 20 21" fill="none" xmlns="http://www.w3.org/2000/svg">
<path d="M13.5925 1.52719C12.6803 0.542344 11.4062 0 10 0C8.58625 0 7.30797 0.539062 6.4 1.51781C5.48219 2.50734 5.035 3.85219 5.14 5.30438C5.34812 8.16938 7.52828 10.5 10 10.5C12.4717 10.5 14.6481 8.16984 14.8595 5.30531C14.9659 3.86625 14.5159 2.52422 13.5925 1.52719V1.52719Z" fill="#E86363"/>
<path d="M18.25 21H1.74999C1.53402 21.0028 1.32014 20.9574 1.12391 20.8672C0.927685 20.7769 0.754042 20.6441 0.615618 20.4783C0.310931 20.1141 0.188118 19.6167 0.279056 19.1138C0.674681 16.9191 1.90937 15.0755 3.84999 13.7812C5.57406 12.6323 7.75796 12 9.99999 12C12.242 12 14.4259 12.6328 16.15 13.7812C18.0906 15.075 19.3253 16.9186 19.7209 19.1133C19.8119 19.6162 19.6891 20.1136 19.3844 20.4778C19.246 20.6437 19.0724 20.7766 18.8761 20.867C18.6799 20.9573 18.466 21.0028 18.25 21V21Z" fill="#E86363"/>
</svg>
