<?xml version="1.0" encoding="utf-8"?>
<!-- Generator: Adobe Illustrator 23.0.3, SVG Export Plug-In . SVG Version: 6.00 Build 0)  -->
<svg version="1.1" id="Layer_1" xmlns="http://www.w3.org/2000/svg" xmlns:xlink="http://www.w3.org/1999/xlink" x="0px" y="0px"
	 viewBox="0 0 24 24" style="enable-background:new 0 0 24 24;" xml:space="preserve">
<style type="text/css">
	.st0{fill:none;stroke:#DCCBCB;stroke-width:1.5;stroke-linecap:round;stroke-linejoin:round;}
</style>
<path class="st0" d="M12.7,3.4L15,8.1c0.1,0.2,0.3,0.4,0.6,0.4l5.2,0.7c0.2,0,0.4,0.1,0.5,0.3c0.2,0.3,0.2,0.8-0.1,1l-3.8,3.6
	c-0.2,0.2-0.3,0.4-0.2,0.7l0.9,5.1c0.1,0.4-0.2,0.8-0.7,0.9c-0.2,0-0.4,0-0.5-0.1l-4.6-2.4c-0.2-0.1-0.5-0.1-0.7,0L7,20.9
	c-0.4,0.2-0.9,0.1-1.1-0.3c-0.1-0.2-0.1-0.3-0.1-0.5L6.7,15c0-0.3,0-0.5-0.2-0.7l-3.8-3.6c-0.3-0.3-0.3-0.8,0-1.1c0,0,0,0,0,0
	C2.9,9.4,3,9.3,3.2,9.3l5.2-0.7c0.3,0,0.5-0.2,0.6-0.4l2.3-4.7c0.1-0.2,0.3-0.3,0.5-0.4c0.2-0.1,0.4-0.1,0.6,0
	C12.5,3.2,12.6,3.3,12.7,3.4z"/>
</svg>
