<svg width="22" height="20" viewBox="0 0 22 20" fill="none" xmlns="http://www.w3.org/2000/svg">
<path d="M19.5712 3L18.228 4.34475C19.3622 6.11889 19.9648 8.18057 19.9648 10.2862C19.9648 12.3919 19.3622 14.4536 18.228 16.2277L19.5667 17.5597C21.0345 15.4159 21.8202 12.8787 21.821 10.2806C21.8218 7.68246 21.0376 5.14473 19.5712 3ZM16.3215 6.24225L15 7.575C15.5867 8.35814 15.9038 9.31033 15.9038 10.2889C15.9038 11.2674 15.5867 12.2196 15 13.0027L16.317 14.3197C17.2436 13.1782 17.7499 11.753 17.7513 10.2827C17.7526 8.81243 17.2489 7.3863 16.3245 6.243L16.3215 6.24225Z" fill="#C37D6F"/>
<path fill-rule="evenodd" clip-rule="evenodd" d="M12.5002 13C12.5002 13.5 12.5002 14.5 12.5002 15C12.5002 16 12.5002 18 12.5002 19C12.5002 19 9.85242 16.8054 9.50015 16.5L6.00015 13.5H2.50015C1.39629 13.5 1.50018 12.7605 1.50016 11.5C1.50015 10 1.50017 9.5 1.50018 8.00001C1.50018 6.75086 1.39629 6.50001 2.50015 6.50001H6.00015L9.50018 3.50003L12.5002 0.999989C12.5002 1.5 12.5002 1.00001 12.5002 2.50001C12.5002 2.98182 12.5002 6.78433 12.5002 7.50003C12.5002 9.00219 12.5002 11.5 12.5002 13Z" stroke="#C37D6F" stroke-width="1.7" stroke-linecap="round" stroke-linejoin="round"/>
</svg>
