<svg width="16" height="16" viewBox="0 0 16 16" fill="none" xmlns="http://www.w3.org/2000/svg">
<path d="M12.3687 2.7375C12.2524 2.67057 12.12 2.63638 11.9858 2.63859C11.8515 2.64079 11.7204 2.67929 11.6062 2.75L4.06875 7.3625C3.91898 7.45158 3.80594 7.59121 3.75 7.75625V2.5C3.75 2.4337 3.72366 2.37011 3.67678 2.32322C3.62989 2.27634 3.5663 2.25 3.5 2.25C3.4337 2.25 3.37011 2.27634 3.32322 2.32322C3.27634 2.37011 3.25 2.4337 3.25 2.5V13.5C3.25 13.5663 3.27634 13.6299 3.32322 13.6768C3.37011 13.7237 3.4337 13.75 3.5 13.75C3.5663 13.75 3.62989 13.7237 3.67678 13.6768C3.72366 13.6299 3.75 13.5663 3.75 13.5V8.24375C3.80594 8.40879 3.91898 8.54842 4.06875 8.6375L11.6062 13.25C11.7247 13.323 11.8609 13.3619 12 13.3625C12.1292 13.3597 12.2558 13.3254 12.3687 13.2625C12.4849 13.1969 12.5815 13.1015 12.6485 12.9862C12.7155 12.8708 12.7506 12.7397 12.75 12.6062V3.39375C12.7506 3.26034 12.7155 3.1292 12.6485 3.01384C12.5815 2.89848 12.4849 2.80309 12.3687 2.7375ZM12.25 12.6062C12.25 12.6507 12.238 12.6944 12.2155 12.7327C12.1929 12.7711 12.1606 12.8027 12.1217 12.8243C12.0829 12.846 12.0389 12.8569 11.9945 12.8559C11.95 12.8549 11.9066 12.8421 11.8687 12.8188L4.33125 8.2125C4.29353 8.1913 4.26213 8.16045 4.24028 8.1231C4.21842 8.08576 4.20691 8.04327 4.20691 8C4.20691 7.95673 4.21842 7.91424 4.24028 7.8769C4.26213 7.83955 4.29353 7.8087 4.33125 7.7875L11.8687 3.18125C11.907 3.15361 11.9528 3.13835 12 3.1375C12.0441 3.13954 12.087 3.15242 12.125 3.175C12.1638 3.19662 12.1959 3.22842 12.218 3.26697C12.24 3.30552 12.2511 3.34936 12.25 3.39375V12.6062Z" fill="white"/>
</svg>
