<?xml version="1.0" encoding="utf-8"?>
<!-- Generator: Adobe Illustrator 23.0.3, SVG Export Plug-In . SVG Version: 6.00 Build 0)  -->
<svg version="1.1" id="Layer_1" xmlns="http://www.w3.org/2000/svg" xmlns:xlink="http://www.w3.org/1999/xlink" x="0px" y="0px"
	 viewBox="0 0 24 24" style="enable-background:new 0 0 24 24;" xml:space="preserve">
<style type="text/css">
	.st0{fill:none;stroke:#F18989;stroke-width:1.5;stroke-linecap:round;stroke-linejoin:round;}
</style>
<path class="st0" d="M11.7,18.6l-5.9,3.2c-0.5,0.2-1.1,0.1-1.3-0.4l0,0c-0.1-0.1-0.1-0.3-0.1-0.5V6.6c0-2.7,1.9-3.8,4.6-3.8h6.3
	c2.6,0,4.6,1,4.6,3.7V21c0,0.3-0.1,0.5-0.3,0.7c-0.2,0.2-0.4,0.3-0.7,0.3c-0.2,0-0.3,0-0.5-0.1l-6-3.2
	C12.1,18.5,11.9,18.5,11.7,18.6z"/>
<path class="st0" d="M8.4,9.3h7.3"/>
</svg>
