<svg width="27" height="27" viewBox="0 0 27 27" fill="none" xmlns="http://www.w3.org/2000/svg">
<path d="M6.60005 24.2H23.1V20.9H6.17058C6.17058 19.8919 6.17058 21.3075 6.17058 20.9C5.66238 20.9132 5.50005 20.9 6.17058 20.9H23.1V4.40001C23.1 3.18671 22.1133 2.20001 20.9 2.20001H6.60005C5.27345 2.20001 3.30005 3.07891 3.30005 5.50001V20.9C3.30005 23.3211 5.27345 24.2 6.60005 24.2ZM5.50005 8.80001V5.50001C5.50005 4.61451 6.10505 4.41321 6.60005 4.40001H20.9V17.6H5.50005V8.80001Z" fill="#E66A6A"/>
<path d="M12.0999 15.4H14.2999V11H16.4999V8.80001H14.2999V6.60001H12.0999V8.80001H9.8999V11H12.0999V15.4Z" fill="#E66A6A"/>
</svg>
