<?xml version="1.0" encoding="utf-8"?>
<!-- Generator: Adobe Illustrator 23.0.3, SVG Export Plug-In . SVG Version: 6.00 Build 0)  -->
<svg version="1.1" id="Layer_1" xmlns="http://www.w3.org/2000/svg" xmlns:xlink="http://www.w3.org/1999/xlink" x="0px" y="0px"
	 viewBox="0 0 24 24" style="enable-background:new 0 0 24 24;" xml:space="preserve">
<style type="text/css">
	.st0{fill:none;stroke:#F18989;stroke-width:1.5;stroke-linecap:round;stroke-linejoin:round;}
</style>
<path class="st0" d="M7.4,19.8c0.4,0,0.8,0.3,0.8,0.8c0,0.4-0.3,0.8-0.8,0.8S6.7,21,6.7,20.6C6.7,20.2,7,19.8,7.4,19.8z"/>
<path class="st0" d="M18.7,19.8c0.4,0,0.8,0.3,0.8,0.8c0,0.4-0.3,0.8-0.8,0.8c-0.4,0-0.8-0.3-0.8-0.8C17.9,20.2,18.3,19.8,18.7,19.8
	z"/>
<path class="st0" d="M2.7,3.2l2.1,0.4l1,11.5c0.1,0.9,0.9,1.7,1.8,1.7h10.9c0.9,0,1.7-0.7,1.8-1.5l0.9-6.6c0.1-0.8-0.5-1.5-1.3-1.5
	H5.2"/>
<path class="st0" d="M14.1,10.8h2.8"/>
</svg>
