<?xml version="1.0" encoding="utf-8"?>
<!-- Generator: Adobe Illustrator 23.0.3, SVG Export Plug-In . SVG Version: 6.00 Build 0)  -->
<svg version="1.1" id="Layer_1" xmlns="http://www.w3.org/2000/svg" xmlns:xlink="http://www.w3.org/1999/xlink" x="0px" y="0px"
	 viewBox="0 0 24 24" style="enable-background:new 0 0 24 24;" xml:space="preserve">
<style type="text/css">
	.st0{fill:none;stroke:#F18989;stroke-width:1.5;stroke-linecap:round;stroke-linejoin:round;}
	.st1{fill:#F18989;}
</style>
<path class="st0" d="M17.6,7.1L17.6,7.1c-0.4,0-0.7-0.2-0.9-0.6c-0.3-0.6-0.7-1.4-0.9-1.8c-0.3-0.6-0.8-1-1.6-1c0,0-4.7,0-4.7,0
	c-0.7,0-1.2,0.4-1.6,1C7.9,5.2,7.5,6,7.2,6.6C7.1,6.9,6.7,7.1,6.4,7.1l0,0c-2,0-3.6,1.6-3.6,3.6v5.9c0,2,1.6,3.6,3.6,3.6h11.3
	c2,0,3.6-1.6,3.6-3.6v-5.9C21.2,8.7,19.6,7.1,17.6,7.1z"/>
<path class="st0" d="M8.8,13.3c0,1.8,1.4,3.2,3.2,3.2c1.7,0,3.2-1.4,3.2-3.2c0-1.8-1.4-3.2-3.2-3.2C10.2,10.2,8.8,11.6,8.8,13.3z"/>
<path class="st1" d="M16.9,11c-0.1,0-0.2,0-0.3-0.1c-0.1-0.1-0.2-0.1-0.3-0.2C16.1,10.5,16,10.3,16,10c0-0.1,0-0.3,0.1-0.4
	c0.1-0.1,0.1-0.2,0.2-0.3c0.1-0.1,0.2-0.1,0.3-0.2C17,8.9,17.4,9,17.7,9.3c0.1,0.1,0.2,0.2,0.2,0.3l0,0.1C18,9.7,18,9.9,18,10
	c0,0.3-0.1,0.5-0.3,0.7c-0.2,0.2-0.4,0.3-0.6,0.3H16.9L16.9,11z"/>
</svg>
