<svg width="24" height="24" viewBox="0 0 24 24" fill="none" xmlns="http://www.w3.org/2000/svg">
<path d="M15.375 12C15.375 12.0995 15.3355 12.1948 15.2652 12.2652C15.1948 12.3355 15.0995 12.375 15 12.375H9C8.90054 12.375 8.80516 12.3355 8.73483 12.2652C8.66451 12.1948 8.625 12.0995 8.625 12C8.625 11.9005 8.66451 11.8052 8.73483 11.7348C8.80516 11.6645 8.90054 11.625 9 11.625H15C15.0995 11.625 15.1948 11.6645 15.2652 11.7348C15.3355 11.8052 15.375 11.9005 15.375 12ZM15 14.625H9C8.90054 14.625 8.80516 14.6645 8.73483 14.7348C8.66451 14.8052 8.625 14.9005 8.625 15C8.625 15.0995 8.66451 15.1948 8.73483 15.2652C8.80516 15.3355 8.90054 15.375 9 15.375H15C15.0995 15.375 15.1948 15.3355 15.2652 15.2652C15.3355 15.1948 15.375 15.0995 15.375 15C15.375 14.9005 15.3355 14.8052 15.2652 14.7348C15.1948 14.6645 15.0995 14.625 15 14.625ZM19.875 4.5V18.75C19.8725 19.4454 19.5952 20.1117 19.1034 20.6034C18.6117 21.0952 17.9454 21.3725 17.25 21.375H6.75C6.05457 21.3725 5.38832 21.0952 4.89657 20.6034C4.40483 20.1117 4.12747 19.4454 4.125 18.75V4.5C4.125 4.20163 4.24353 3.91548 4.4545 3.7045C4.66548 3.49353 4.95163 3.375 5.25 3.375H7.125V2.25C7.125 2.15054 7.16451 2.05516 7.23483 1.98484C7.30516 1.91451 7.40054 1.875 7.5 1.875C7.59946 1.875 7.69484 1.91451 7.76517 1.98484C7.83549 2.05516 7.875 2.15054 7.875 2.25V3.375H11.625V2.25C11.625 2.15054 11.6645 2.05516 11.7348 1.98484C11.8052 1.91451 11.9005 1.875 12 1.875C12.0995 1.875 12.1948 1.91451 12.2652 1.98484C12.3355 2.05516 12.375 2.15054 12.375 2.25V3.375H16.125V2.25C16.125 2.15054 16.1645 2.05516 16.2348 1.98484C16.3052 1.91451 16.4005 1.875 16.5 1.875C16.5995 1.875 16.6948 1.91451 16.7652 1.98484C16.8355 2.05516 16.875 2.15054 16.875 2.25V3.375H18.75C19.0484 3.375 19.3345 3.49353 19.5455 3.7045C19.7565 3.91548 19.875 4.20163 19.875 4.5ZM19.125 4.5C19.125 4.40054 19.0855 4.30516 19.0152 4.23484C18.9448 4.16451 18.8495 4.125 18.75 4.125H16.875V5.25C16.875 5.34946 16.8355 5.44484 16.7652 5.51516C16.6948 5.58549 16.5995 5.625 16.5 5.625C16.4005 5.625 16.3052 5.58549 16.2348 5.51516C16.1645 5.44484 16.125 5.34946 16.125 5.25V4.125H12.375V5.25C12.375 5.34946 12.3355 5.44484 12.2652 5.51516C12.1948 5.58549 12.0995 5.625 12 5.625C11.9005 5.625 11.8052 5.58549 11.7348 5.51516C11.6645 5.44484 11.625 5.34946 11.625 5.25V4.125H7.875V5.25C7.875 5.34946 7.83549 5.44484 7.76517 5.51516C7.69484 5.58549 7.59946 5.625 7.5 5.625C7.40054 5.625 7.30516 5.58549 7.23483 5.51516C7.16451 5.44484 7.125 5.34946 7.125 5.25V4.125H5.25C5.15054 4.125 5.05516 4.16451 4.98484 4.23484C4.91451 4.30516 4.875 4.40054 4.875 4.5V18.75C4.87746 19.2465 5.0758 19.722 5.4269 20.0731C5.778 20.4242 6.25348 20.6225 6.75 20.625H17.25C17.7465 20.6225 18.222 20.4242 18.5731 20.0731C18.9242 19.722 19.1225 19.2465 19.125 18.75V4.5Z" fill="#F18989"/>
</svg>
