<svg width="22" height="19" viewBox="0 0 22 19" fill="none" xmlns="http://www.w3.org/2000/svg">
<path d="M8.39999 12.3H3.39999C1.99999 11.8 0.899994 10.4 0.899994 8.90001C0.899994 8.50001 0.999994 8.00001 1.19999 7.60001C1.39999 7.10001 1.69999 6.80001 1.99999 6.40001C2.39999 6.10001 2.79999 5.80001 3.29999 5.70001C3.79999 5.50001 4.29999 5.50001 4.79999 5.50001C4.99999 4.70001 5.29999 4.00001 5.79999 3.40001C6.29999 2.80001 6.89999 2.20001 7.59999 1.80001C8.29999 1.40001 9.09999 1.10001 9.99999 1.00001C10.8 0.900012 11.7 0.900012 12.5 1.10001C13.3 1.30001 14.1 1.60001 14.8 2.10001C15.5 2.60001 16 3.20001 16.5 3.80001C16.9 4.50001 17.2 5.20001 17.3 6.00001C17.4 6.80001 17.3 7.50001 17.1 8.30001C17.3 8.00001 17.6 7.90001 18 7.80001C18.4 7.70001 18.8 7.80001 19.2 7.90001C19.6 8.00001 19.9 8.20001 20.2 8.50001C20.5 8.80001 20.7 9.10001 20.8 9.40001C21 9.70001 21 10 20.9 10.4C20.8 10.8 20.7 11.1 20.5 11.4C20.3 11.7 20 11.9 19.6 12.1C19.2 12.3 18.9 12.4 18.5 12.4H13.5" stroke="#2ED573" stroke-width="1.1429" stroke-linecap="round" stroke-linejoin="round"/>
<path d="M8.7 15.8L11 18L13.3 15.7" stroke="#2ED573" stroke-width="1.1429" stroke-linecap="round" stroke-linejoin="round"/>
<path d="M11 6.59998V18" stroke="#2ED573" stroke-width="1.1429" stroke-linecap="round" stroke-linejoin="round"/>
</svg>
