<svg width="22" height="19" viewBox="0 0 22 19" fill="none" xmlns="http://www.w3.org/2000/svg">
<path d="M20.3113 6.77246C19.7416 6.4267 19.0296 6.17527 18.2454 6.03705C18.1132 6.0129 17.9914 5.95226 17.895 5.86266C17.7987 5.77305 17.7319 5.65842 17.7031 5.53297C17.3654 4.11752 16.6461 2.90264 15.5912 1.98184C14.358 0.905176 12.7278 0.3125 11 0.3125C9.48105 0.3125 8.07813 0.766953 6.94504 1.625C6.17977 2.20741 5.56336 2.9484 5.1425 3.79186C5.09568 3.88696 5.02569 3.96999 4.93838 4.034C4.85107 4.09801 4.74897 4.14113 4.64062 4.15977C3.47488 4.36074 2.46941 4.76187 1.70113 5.33691C0.588672 6.17076 0 7.34914 0 8.74531C0 11.5098 2.40324 13.4375 5.84375 13.4375H10.3125V8.20596C10.3125 7.85281 10.597 7.54971 10.9669 7.53207C11.0599 7.5278 11.1528 7.54158 11.24 7.57259C11.3272 7.6036 11.4069 7.65118 11.4743 7.71247C11.5416 7.77375 11.5953 7.84745 11.6319 7.9291C11.6686 8.01076 11.6875 8.09867 11.6875 8.1875V13.4375H17.0156C20.1369 13.4375 22 12.0331 22 9.68047C22 8.44795 21.4161 7.44225 20.3113 6.77246ZM10.3125 16.4489L8.73555 14.9461C8.60586 14.8261 8.43192 14.7596 8.25132 14.7611C8.07073 14.7625 7.89798 14.8318 7.77042 14.9538C7.64286 15.0758 7.57072 15.2409 7.56961 15.4133C7.56849 15.5856 7.63848 15.7515 7.76445 15.8751L10.5145 18.4955C10.6433 18.6183 10.818 18.6872 11 18.6872C11.182 18.6872 11.3567 18.6183 11.4855 18.4955L14.2355 15.8751C14.3615 15.7515 14.4315 15.5856 14.4304 15.4133C14.4293 15.2409 14.3571 15.0758 14.2296 14.9538C14.102 14.8318 13.9293 14.7625 13.7487 14.7611C13.5681 14.7596 13.3941 14.8261 13.2645 14.9461L11.6875 16.4489V13.4375H10.3125V16.4489Z" fill="#2ED573"/>
</svg>
