<svg width="16" height="16" viewBox="0 0 16 16" fill="none" xmlns="http://www.w3.org/2000/svg">
<path d="M3.63125 13.2625C3.74764 13.3294 3.87998 13.3636 4.01422 13.3614C4.14847 13.3592 4.27962 13.3207 4.39375 13.25L11.9313 8.6375C12.081 8.54842 12.1941 8.40879 12.25 8.24375V13.5C12.25 13.5663 12.2763 13.6299 12.3232 13.6768C12.3701 13.7237 12.4337 13.75 12.5 13.75C12.5663 13.75 12.6299 13.7237 12.6768 13.6768C12.7237 13.6299 12.75 13.5663 12.75 13.5L12.75 2.5C12.75 2.4337 12.7237 2.37011 12.6768 2.32322C12.6299 2.27634 12.5663 2.25 12.5 2.25C12.4337 2.25 12.3701 2.27634 12.3232 2.32322C12.2763 2.37011 12.25 2.4337 12.25 2.5L12.25 7.75625C12.1941 7.59121 12.081 7.45158 11.9313 7.3625L4.39375 2.75C4.27534 2.677 4.1391 2.63807 4 2.6375C3.87077 2.64031 3.74419 2.67464 3.63125 2.7375C3.51508 2.80309 3.4185 2.89848 3.35149 3.01384C3.28447 3.1292 3.24944 3.26034 3.25 3.39375L3.25 12.6063C3.24944 12.7397 3.28447 12.8708 3.35149 12.9862C3.4185 13.1015 3.51508 13.1969 3.63125 13.2625ZM3.75 3.39375C3.75005 3.34927 3.76196 3.30561 3.78451 3.26727C3.80706 3.22894 3.83943 3.19731 3.87829 3.17566C3.91714 3.154 3.96106 3.1431 4.00553 3.14409C4.04999 3.14507 4.0934 3.1579 4.13125 3.18125L11.6687 7.7875C11.7065 7.8087 11.7379 7.83955 11.7597 7.8769C11.7816 7.91424 11.7931 7.95673 11.7931 8C11.7931 8.04327 11.7816 8.08576 11.7597 8.1231C11.7379 8.16045 11.7065 8.1913 11.6687 8.2125L4.13125 12.8187C4.09299 12.8464 4.04719 12.8617 4 12.8625C3.95588 12.8605 3.91295 12.8476 3.875 12.825C3.83622 12.8034 3.80408 12.7716 3.78205 12.733C3.76002 12.6945 3.74894 12.6506 3.75 12.6063L3.75 3.39375Z" fill="white"/>
</svg>
