<svg width="24" height="24" viewBox="0 0 24 24" fill="none" xmlns="http://www.w3.org/2000/svg">
<path d="M11.312 5.47399C10.8667 5.00941 10.3323 4.63936 9.74082 4.38595C9.1493 4.13254 8.51276 4.00097 7.86925 3.9991C7.22573 3.99724 6.58845 4.12511 5.99546 4.37509C5.40248 4.62506 4.86597 4.992 4.418 5.45399C2.518 7.40399 2.528 10.572 4.438 12.528L11.498 19.774C11.79 20.074 12.266 20.074 12.558 19.774L19.584 12.57C20.4958 11.6178 21.0032 10.3493 20.9995 9.03096C20.9957 7.7126 20.4812 6.44699 19.564 5.49999C19.1183 5.03487 18.5835 4.66441 17.9913 4.41078C17.3992 4.15715 16.762 4.02556 16.1178 4.02388C15.4737 4.0222 14.8358 4.15046 14.2423 4.401C13.6489 4.65154 13.1121 5.0192 12.664 5.48199L11.992 6.17199L11.312 5.47199V5.47399Z" fill="#FF4757"/>
</svg>
