<svg width="24" height="24" viewBox="0 0 24 24" fill="none" xmlns="http://www.w3.org/2000/svg">
<path d="M10.82 5.03003C9.89025 4.29493 8.72056 3.93148 7.53794 4.01019C6.35532 4.08891 5.24411 4.60419 4.42 5.45603C2.52 7.40403 2.528 10.572 4.436 12.528L11.5 19.774C11.792 20.074 12.268 20.074 12.56 19.774L19.586 12.57C20.4978 11.6179 21.0052 10.3494 21.0014 9.031C20.9977 7.71264 20.4832 6.44703 19.566 5.50003C19.1202 5.03516 18.5853 4.66492 17.9932 4.41145C17.401 4.15798 16.7639 4.02648 16.1198 4.0248C15.4757 4.02311 14.8379 4.15129 14.2445 4.40167C13.6511 4.65205 13.1142 5.01949 12.666 5.48203L11.994 6.17203L11.314 5.47203C11.1599 5.31468 10.9955 5.16769 10.822 5.03203L10.82 5.03003ZM14.096 6.87803C14.3579 6.60657 14.672 6.39098 15.0195 6.24429C15.367 6.09759 15.7407 6.02283 16.1178 6.02451C16.495 6.02619 16.868 6.10428 17.2141 6.25407C17.5603 6.40386 17.8726 6.62224 18.132 6.89603C19.286 8.08003 19.286 10.002 18.15 11.176L18.148 11.178L12.028 17.454L5.868 11.134C5.3137 10.5601 5.00257 9.79416 4.99959 8.99624C4.99661 8.19833 5.302 7.43011 5.852 6.85203C6.11347 6.5813 6.42706 6.36632 6.77385 6.22004C7.12064 6.07377 7.49347 5.99922 7.86984 6.0009C8.24622 6.00259 8.61836 6.08046 8.96383 6.22983C9.3093 6.3792 9.62095 6.59698 9.88 6.87003L10.56 7.56803C10.7464 7.75944 10.9692 7.91157 11.2153 8.01546C11.4614 8.11934 11.7259 8.17286 11.993 8.17286C12.2601 8.17286 12.5246 8.11934 12.7707 8.01546C13.0168 7.91157 13.2396 7.75944 13.426 7.56803L14.096 6.87803V6.87803Z" fill="#FF4757"/>
</svg>
