<?xml version="1.0" encoding="utf-8"?>
<!-- Generator: Adobe Illustrator 23.0.3, SVG Export Plug-In . SVG Version: 6.00 Build 0)  -->
<svg version="1.1" id="Layer_1" xmlns="http://www.w3.org/2000/svg" xmlns:xlink="http://www.w3.org/1999/xlink" x="0px" y="0px"
	 viewBox="0 0 24 24" style="enable-background:new 0 0 24 24;" xml:space="preserve">
<style type="text/css">
	.st0{fill:none;stroke:#F18989;stroke-width:1.5;stroke-linecap:round;stroke-linejoin:round;}
</style>
<path class="st0" d="M11.8,20.9c-2.2-1.3-4.2-2.9-6-4.7c-1.3-1.3-2.3-2.8-2.9-4.6C1.8,8.3,3.1,4.4,6.6,3.3C8.4,2.7,10.4,3,12,4.2
	c1.6-1.2,3.6-1.5,5.4-0.9c3.5,1.1,4.8,5,3.7,8.3c-0.6,1.7-1.6,3.3-2.9,4.6c-1.8,1.8-3.9,3.4-6,4.7L12,21L11.8,20.9z"/>
<path class="st0" d="M15.7,7.1c1.1,0.3,1.8,1.3,1.9,2.4"/>
</svg>
