<?xml version="1.0" encoding="utf-8"?>
<!-- Generator: Adobe Illustrator 23.0.3, SVG Export Plug-In . SVG Version: 6.00 Build 0)  -->
<svg version="1.1" id="Layer_1" xmlns="http://www.w3.org/2000/svg" xmlns:xlink="http://www.w3.org/1999/xlink" x="0px" y="0px"
	 viewBox="0 0 24 24" style="enable-background:new 0 0 24 24;" xml:space="preserve">
<style type="text/css">
	.st0{fill:none;stroke:#F18989;stroke-width:1.5;stroke-linecap:round;stroke-linejoin:round;}
	.st1{fill:#F18989;}
</style>
<path class="st0" d="M16.3,2.8H7.7c-3,0-4.9,2.1-4.9,5.2v8.2c0,3,1.9,5.2,4.9,5.2h8.7c3,0,4.9-2.1,4.9-5.2V7.9
	C21.3,4.9,19.4,2.8,16.3,2.8z"/>
<path class="st1" d="M7.5,13.2c-0.7,0-1.2-0.5-1.2-1.2c0-0.7,0.5-1.2,1.2-1.2s1.2,0.5,1.2,1.2C8.7,12.7,8.2,13.2,7.5,13.2z"/>
<path class="st1" d="M12,13.2c-0.7,0-1.2-0.5-1.2-1.2c0-0.7,0.5-1.2,1.2-1.2c0.7,0,1.2,0.5,1.2,1.2C13.2,12.7,12.7,13.2,12,13.2z"/>
<path class="st1" d="M16.5,13.2c-0.7,0-1.2-0.5-1.2-1.2c0-0.7,0.5-1.2,1.2-1.2c0.7,0,1.2,0.5,1.2,1.2C17.7,12.7,17.1,13.2,16.5,13.2
	z"/>
</svg>
