<svg width="24" height="24" viewBox="0 0 24 24" fill="none" xmlns="http://www.w3.org/2000/svg">
<path d="M21.2625 5.73749L18.2625 2.73749C18.2284 2.70233 18.1876 2.67438 18.1425 2.6553C18.0974 2.63621 18.049 2.62637 18 2.62637C17.951 2.62637 17.9026 2.63621 17.8575 2.6553C17.8124 2.67438 17.7716 2.70233 17.7375 2.73749L8.7375 11.7375C8.7007 11.7704 8.67155 11.8109 8.65212 11.8563C8.63268 11.9016 8.62342 11.9507 8.625 12V15C8.625 15.0994 8.66451 15.1948 8.73483 15.2652C8.80516 15.3355 8.90054 15.375 9 15.375H12C12.0493 15.3766 12.0984 15.3673 12.1437 15.3479C12.1891 15.3284 12.2296 15.2993 12.2625 15.2625L21.2625 6.26249C21.2977 6.2284 21.3256 6.1876 21.3447 6.14251C21.3638 6.09742 21.3736 6.04895 21.3736 5.99999C21.3736 5.95102 21.3638 5.90256 21.3447 5.85746C21.3256 5.81237 21.2977 5.77157 21.2625 5.73749ZM11.8406 14.625H9.375V12.1594L15.75 5.78436L18.2156 8.24999L11.8406 14.625ZM18.75 7.71561L16.2844 5.24999L18 3.53436L20.4656 5.99999L18.75 7.71561ZM20.625 11.25V19.5C20.625 19.7984 20.5065 20.0845 20.2955 20.2955C20.0845 20.5065 19.7984 20.625 19.5 20.625H4.5C4.20163 20.625 3.91548 20.5065 3.7045 20.2955C3.49353 20.0845 3.375 19.7984 3.375 19.5V4.49999C3.375 4.20162 3.49353 3.91547 3.7045 3.70449C3.91548 3.49351 4.20163 3.37499 4.5 3.37499H12.75C12.8495 3.37499 12.9448 3.4145 13.0152 3.48482C13.0855 3.55515 13.125 3.65053 13.125 3.74999C13.125 3.84944 13.0855 3.94483 13.0152 4.01515C12.9448 4.08548 12.8495 4.12499 12.75 4.12499H4.5C4.40054 4.12499 4.30516 4.1645 4.23484 4.23482C4.16451 4.30515 4.125 4.40053 4.125 4.49999V19.5C4.125 19.5994 4.16451 19.6948 4.23484 19.7652C4.30516 19.8355 4.40054 19.875 4.5 19.875H19.5C19.5995 19.875 19.6948 19.8355 19.7652 19.7652C19.8355 19.6948 19.875 19.5994 19.875 19.5V11.25C19.875 11.1505 19.9145 11.0551 19.9848 10.9848C20.0552 10.9145 20.1505 10.875 20.25 10.875C20.3495 10.875 20.4448 10.9145 20.5152 10.9848C20.5855 11.0551 20.625 11.1505 20.625 11.25Z" fill="#F18989"/>
</svg>
