<svg width="24" height="24" viewBox="0 0 24 24" fill="none" xmlns="http://www.w3.org/2000/svg">
<path d="M9 4C9.26522 4 9.51957 4.13828 9.70711 4.38442C9.89464 4.63056 10 4.9644 10 5.3125V18.4375C10 18.7856 9.89464 19.1194 9.70711 19.3656C9.51957 19.6117 9.26522 19.75 9 19.75C8.73478 19.75 8.48043 19.6117 8.29289 19.3656C8.10536 19.1194 8 18.7856 8 18.4375V5.3125C8 4.9644 8.10536 4.63056 8.29289 4.38442C8.48043 4.13828 8.73478 4 9 4V4ZM15 4C15.2652 4 15.5196 4.13828 15.7071 4.38442C15.8946 4.63056 16 4.9644 16 5.3125V18.4375C16 18.7856 15.8946 19.1194 15.7071 19.3656C15.5196 19.6117 15.2652 19.75 15 19.75C14.7348 19.75 14.4804 19.6117 14.2929 19.3656C14.1054 19.1194 14 18.7856 14 18.4375V5.3125C14 4.9644 14.1054 4.63056 14.2929 4.38442C14.4804 4.13828 14.7348 4 15 4V4Z" fill="white"/>
</svg>
