<svg width="256" height="256" viewBox="0 0 256 256" fill="none" xmlns="http://www.w3.org/2000/svg">
<g clip-path="url(#clip0_1315_344)">
<path d="M62 128.022C62 171.734 88.025 188.229 89.15 188.903C90.2583 189.59 91.1127 190.619 91.5839 191.834C92.055 193.05 92.1174 194.385 91.7614 195.639C91.4054 196.893 90.6506 197.997 89.611 198.784C88.5715 199.571 87.3039 199.998 86 200C84.9226 199.983 83.8662 199.7 82.925 199.175C81.575 198.35 50 178.856 50 128.022C50 77.1878 81.575 57.6938 82.925 56.869C84.301 56.0684 85.9364 55.8399 87.4794 56.2325C89.0223 56.6251 90.3493 57.6075 91.175 58.9684C91.9721 60.3326 92.1987 61.956 91.8055 63.4862C91.4123 65.0164 90.4311 66.3297 89.075 67.1409C87.875 67.8906 62 84.3856 62 128.022V128.022ZM173.075 56.869C171.712 56.0438 170.078 55.7935 168.531 56.1731C166.983 56.5528 165.65 57.5313 164.825 58.8934C164 60.2555 163.749 61.8897 164.129 63.4364C164.509 64.9831 165.487 66.3156 166.85 67.1409C167.975 67.8157 194 84.3106 194 128.022C194 171.734 167.975 188.229 166.925 188.828C165.786 189.496 164.899 190.521 164.402 191.744C163.905 192.968 163.826 194.32 164.176 195.593C164.526 196.866 165.287 197.988 166.34 198.784C167.393 199.581 168.679 200.008 170 200C171.077 199.983 172.134 199.7 173.075 199.175C174.425 198.35 206 178.856 206 128.022C206 77.1878 174.425 57.6938 173.075 56.869Z" fill="white"/>
<path d="M100.781 164.125C99.9939 164.125 99.2388 163.812 98.682 163.255C98.1253 162.699 97.8125 161.944 97.8125 161.156V95.8437C97.8126 95.3278 97.9471 94.8209 98.2028 94.3728C98.4585 93.9248 98.8265 93.5511 99.2706 93.2886C99.7147 93.0261 100.22 92.8838 100.735 92.8758C101.251 92.8679 101.76 92.9945 102.212 93.2431L161.587 125.899C162.053 126.156 162.441 126.532 162.711 126.99C162.981 127.447 163.124 127.969 163.124 128.5C163.124 129.031 162.981 129.553 162.711 130.01C162.441 130.468 162.053 130.844 161.587 131.101L102.212 163.757C101.774 163.998 101.282 164.125 100.781 164.125Z" fill="white"/>
<path d="M33.9231 128C33.9231 186.3 70.625 208.3 72.2115 209.2C73.7745 210.116 74.9794 211.488 75.6439 213.109C76.3084 214.73 76.3963 216.512 75.8943 218.184C75.3923 219.856 74.3277 221.329 72.8617 222.378C71.3957 223.428 69.608 223.997 67.7692 224C66.2498 223.977 64.76 223.6 63.4327 222.9C61.5288 221.8 17 195.8 17 128C17 60.2 61.5288 34.2 63.4327 33.1C65.3732 32.0322 67.6796 31.7273 69.8555 32.251C72.0314 32.7746 73.9029 34.085 75.0673 35.9C76.1914 37.7194 76.511 39.8847 75.9565 41.9256C75.4019 43.9664 74.0182 45.7181 72.1058 46.8C70.4135 47.8 33.9231 69.8 33.9231 128V128ZM190.567 33.1C188.646 31.9994 186.34 31.6655 184.159 32.1718C181.977 32.6782 180.097 33.9833 178.933 35.8C177.769 37.6167 177.415 39.7963 177.951 41.8592C178.487 43.9221 179.867 45.6994 181.788 46.8C183.375 47.7 220.077 69.7 220.077 128C220.077 186.3 183.375 208.3 181.894 209.1C180.288 209.991 179.037 211.358 178.337 212.989C177.636 214.621 177.524 216.425 178.018 218.123C178.512 219.82 179.584 221.316 181.069 222.379C182.554 223.442 184.368 224.011 186.231 224C187.75 223.977 189.24 223.6 190.567 222.9C192.471 221.8 237 195.8 237 128C237 60.2 192.471 34.2 190.567 33.1Z" fill="white"/>
</g>
<defs>
<clipPath id="clip0_1315_344">
<rect width="256" height="256" fill="white"/>
</clipPath>
</defs>
</svg>
