<?xml version="1.0" encoding="utf-8"?>
<!-- Generator: Adobe Illustrator 23.0.3, SVG Export Plug-In . SVG Version: 6.00 Build 0)  -->
<svg version="1.1" id="Layer_1" xmlns="http://www.w3.org/2000/svg" xmlns:xlink="http://www.w3.org/1999/xlink" x="0px" y="0px"
	 viewBox="0 0 100 100" style="enable-background:new 0 0 100 100;" xml:space="preserve">
<style type="text/css">
	.st0{fill:url(#SVGID_1_);}
	.st1{fill:#EE6C61;}
</style>
<radialGradient id="SVGID_1_" cx="49.99" cy="49.9999" r="41.7924" gradientUnits="userSpaceOnUse">
	<stop  offset="4.084122e-04" style="stop-color:#FFFFFF"/>
	<stop  offset="1" style="stop-color:#F0F0F0"/>
</radialGradient>
<path class="st0" d="M85.2,44.7c-3-2.1-6.2-3.8-9.3-5.7c0,0,0,0,0,0c-0.7-0.4-1.4-0.8-2.1-1.2l-0.6-0.4l-16.1-9.8L33,13l-0.4,0.4
	L33,13c-3.5-2.2-6.9-4.8-10.6-6.3c-4.9-2.1-9.9-1.9-10.4,5.7c-0.6,7.3-0.3,14.7-0.4,22l0.9-0.9l-0.9,0.9l0,0l-0.4,34.9h19.9
	l-3.7-6.6l20,0l3.1-5.7H34.7l5.8-11.1c-2.5,0-7.4,0-7.4,0L27.2,57h-2.9l-4-7L31,30.8l-15.8,0l0,0l15.8,0v0c7.4,0,22.8,0,22.8,0
	l3.9,6.6H37.6l-3.3,5.9h15.8c-1.9,3.7-5.7,11.1-5.7,11.1c2.5,0,7.5,0,7.5,0l5.9-11.1h3.1l3.9,6.8L54,69.3H41.7c0,0,0,0,0,0
	s-19.8,0-30.5,0c0,6.8-0.2,12-0.1,18.8c0,3.6,2.3,6,5.6,6.4c0,0,0,0,0,0c1.8-0.4,3.6-0.6,5.3-1.2c1.6-0.6,3.1-1.7,4.7-2.6
	c13.3-7.7,23.8-13.8,37.1-21.4c0,0,9-5.2,12.2-7c0,0,0,0,0,0c3-1.7,6.2-3.3,9.1-5.3C90.1,53.6,90.2,48.2,85.2,44.7z M54.9,29.7
	c-0.4,0.4-0.7,0.7-0.9,0.9L54.9,29.7z M56.5,28.2c-0.4,0.4-0.8,0.8-1.3,1.2L56.5,28.2z"/>
<g>
	<polygon class="st1" points="20.2,50 24.3,57 27.2,57 33.1,45.8 40.5,45.8 34.7,57 50.5,57 47.4,62.6 27.2,62.6 31.1,69.2 54,69.2 
		64.8,50 60.9,43.2 57.8,43.2 51.9,54.4 44.4,54.4 50.1,43.2 34.3,43.2 37.6,37.4 57.7,37.4 53.8,30.8 31,30.8 	"/>
</g>
</svg>
