<svg width="45" height="45" viewBox="0 0 45 45" fill="none" xmlns="http://www.w3.org/2000/svg">
<path d="M11.6894 6.32815C11.1498 6.32915 10.6197 6.47061 10.1514 6.7386C9.09667 7.33626 8.44101 8.49641 8.44101 9.75589V35.2442C8.44101 36.5072 9.09667 37.6638 10.1514 38.2615C10.6309 38.537 11.1757 38.6788 11.7287 38.6718C12.2817 38.6649 12.8228 38.5095 13.2952 38.2219L35.0789 25.1824C35.5329 24.8978 35.9071 24.5025 36.1666 24.0336C36.426 23.5647 36.5621 23.0376 36.5621 22.5018C36.5621 21.9659 36.426 21.4388 36.1666 20.97C35.9071 20.5011 35.5329 20.1058 35.0789 19.8211L13.2917 6.77815C12.8082 6.48586 12.2544 6.33032 11.6894 6.32815Z" fill="white"/>
</svg>
