<svg width="16" height="16" viewBox="0 0 16 16" fill="none" xmlns="http://www.w3.org/2000/svg">
<path d="M2 9C2 10.1867 2.35189 11.3467 3.01118 12.3334C3.67047 13.3201 4.60754 14.0892 5.7039 14.5433C6.80026 14.9974 8.00666 15.1162 9.17054 14.8847C10.3344 14.6532 11.4035 14.0818 12.2426 13.2426C13.0818 12.4035 13.6532 11.3344 13.8847 10.1705C14.1162 9.00666 13.9974 7.80026 13.5433 6.7039C13.0892 5.60754 12.3201 4.67047 11.3334 4.01118C10.3467 3.35189 9.18669 3 8 3H6V0.5L3 3.5L6 6.5V4H8C8.98891 4 9.95561 4.29325 10.7779 4.84265C11.6001 5.39206 12.241 6.17295 12.6194 7.08658C12.9978 8.00021 13.0969 9.00555 12.9039 9.97545C12.711 10.9454 12.2348 11.8363 11.5355 12.5355C10.8363 13.2348 9.94536 13.711 8.97545 13.9039C8.00555 14.0969 7.00021 13.9978 6.08658 13.6194C5.17295 13.241 4.39206 12.6001 3.84265 11.7779C3.29324 10.9556 3 9.98891 3 9H2Z" fill="white"/>
<path d="M9.815 11.065C9.59407 11.0704 9.37492 11.0242 9.175 10.93C8.99748 10.8399 8.8447 10.7077 8.73 10.545C8.60426 10.3552 8.51601 10.143 8.47 9.92001C8.41092 9.64398 8.38241 9.36228 8.385 9.08001C8.38297 8.79776 8.41147 8.51613 8.47 8.24001C8.51693 8.01728 8.60512 7.8053 8.73 7.61501C8.8447 7.45229 8.99748 7.32011 9.175 7.23001C9.37492 7.13582 9.59407 7.08959 9.815 7.09501C10.0227 7.0792 10.231 7.11686 10.4201 7.20438C10.6092 7.29191 10.7727 7.42639 10.895 7.59501C11.1528 8.03845 11.2745 8.54792 11.245 9.06001C11.2745 9.5721 11.1528 10.0816 10.895 10.525C10.7773 10.701 10.6158 10.8433 10.4265 10.938C10.2371 11.0327 10.0264 11.0764 9.815 11.065ZM9.815 10.455C9.9158 10.461 10.0162 10.4384 10.1047 10.3897C10.1932 10.3411 10.2661 10.2684 10.315 10.18C10.4345 9.94614 10.4978 9.68763 10.5 9.42501V8.73501C10.5108 8.47712 10.4612 8.22028 10.355 7.98501C10.2991 7.89938 10.2227 7.82904 10.1328 7.78035C10.0429 7.73166 9.94226 7.70616 9.84 7.70616C9.73774 7.70616 9.6371 7.73166 9.54718 7.78035C9.45726 7.82904 9.38089 7.89938 9.325 7.98501C9.21884 8.22028 9.16919 8.47712 9.18 8.73501V9.42501C9.16969 9.68447 9.21931 9.94282 9.325 10.18C9.37269 10.2672 9.44392 10.3392 9.53056 10.3878C9.6172 10.4364 9.71576 10.4597 9.815 10.455ZM5.315 11V10.41H6.315V7.81501L5.385 8.31501L5.11 7.78501L6.27 7.13501H7V10.385H7.89V11H5.315Z" fill="white"/>
</svg>
