<svg width="24" height="24" viewBox="0 0 24 24" fill="none" xmlns="http://www.w3.org/2000/svg">
<path d="M17.8 23.5C16 23.5 14.6 22.1 14.6 20.3C14.6 19.8 14.7 19.4 14.9 19L8.6 14.9C8 15.6 7.2 16 6.2 16C4.4 16 3 14.6 3 12.8C3 11 4.4 9.6 6.2 9.6C7.2 9.6 8 10 8.6 10.7L14.9 6.6C14.7 6.2 14.6 5.8 14.6 5.3C14.6 3.4 16 2 17.8 2C19.6 2 21 3.4 21 5.2C21 7 19.6 8.4 17.8 8.4C16.9 8.4 16.1 8 15.6 7.5L9.2 11.7C9.3 12 9.4 12.4 9.4 12.8C9.4 13.2 9.3 13.6 9.2 13.9L15.6 18.1C16.2 17.5 17 17.2 17.8 17.2C19.6 17.2 21 18.6 21 20.4C21 22 19.6 23.5 17.8 23.5ZM17.8 22.3C18.9 22.3 19.8 21.4 19.8 20.3C19.8 19.2 18.9 18.3 17.8 18.3C16.7 18.3 15.8 19.2 15.8 20.3C15.8 21.4 16.7 22.3 17.8 22.3ZM6.2 14.8C7.3 14.8 8.2 13.9 8.2 12.8C8.2 11.7 7.3 10.8 6.2 10.8C5.1 10.8 4.2 11.7 4.2 12.8C4.2 13.9 5.1 14.8 6.2 14.8ZM17.8 7.2C18.9 7.2 19.8 6.3 19.8 5.2C19.8 4.1 18.9 3.2 17.8 3.2C16.7 3.2 15.8 4.1 15.8 5.2C15.8 6.3 16.7 7.2 17.8 7.2Z" fill="#1E90FF" stroke="#1E90FF" stroke-width="0.5"/>
</svg>
