<svg width="24" height="24" viewBox="0 0 24 24" fill="none" xmlns="http://www.w3.org/2000/svg">
<g clip-path="url(#clip0_1037_289)">
<path d="M17.613 15.516C19.0654 13.5341 19.716 11.0768 19.4345 8.63575C19.1529 6.19474 17.9601 3.95004 16.0946 2.35072C14.2292 0.75141 11.8286 -0.084566 9.37325 0.0100437C6.91788 0.104653 4.58877 1.12287 2.8519 2.86099C1.11502 4.59911 0.0984721 6.92894 0.0056194 9.38438C-0.0872333 11.8398 0.75046 14.2398 2.35111 16.1041C3.95176 17.9684 6.19731 19.1596 8.63852 19.4394C11.0797 19.7192 13.5366 19.0669 15.5175 17.613H15.516C15.561 17.673 15.609 17.73 15.663 17.7855L21.438 23.5605C21.7193 23.842 22.1008 24.0002 22.4987 24.0003C22.8966 24.0005 23.2783 23.8425 23.5597 23.5613C23.8412 23.28 23.9994 22.8985 23.9996 22.5006C23.9997 22.1027 23.8418 21.721 23.5605 21.4395L17.7855 15.6645C17.7319 15.6102 17.6742 15.5601 17.613 15.5145V15.516ZM18 9.75003C18 10.8334 17.7866 11.9062 17.372 12.9072C16.9574 13.9081 16.3497 14.8176 15.5836 15.5837C14.8175 16.3497 13.9081 16.9574 12.9071 17.372C11.9062 17.7866 10.8334 18 9.75 18C8.66659 18 7.59379 17.7866 6.59286 17.372C5.59192 16.9574 4.68245 16.3497 3.91637 15.5837C3.15028 14.8176 2.54259 13.9081 2.12799 12.9072C1.71339 11.9062 1.5 10.8334 1.5 9.75003C1.5 7.56199 2.36919 5.46357 3.91637 3.9164C5.46354 2.36922 7.56196 1.50003 9.75 1.50003C11.938 1.50003 14.0365 2.36922 15.5836 3.9164C17.1308 5.46357 18 7.56199 18 9.75003V9.75003Z" fill="#E86363"/>
</g>
<defs>
<clipPath id="clip0_1037_289">
<rect width="24" height="24" fill="white"/>
</clipPath>
</defs>
</svg>
