<svg width="24" height="24" viewBox="0 0 24 24" fill="none" xmlns="http://www.w3.org/2000/svg">
<path d="M7.21717 10.907C6.97504 10.4713 6.59508 10.1284 6.13694 9.93199C5.67881 9.73561 5.16843 9.69692 4.68593 9.82199C4.20342 9.94706 3.77611 10.2288 3.47106 10.623C3.166 11.0172 3.00049 11.5016 3.00049 12C3.00049 12.4985 3.166 12.9828 3.47106 13.377C3.77611 13.7712 4.20342 14.053 4.68593 14.178C5.16843 14.3031 5.67881 14.2644 6.13694 14.068C6.59508 13.8716 6.97504 13.5287 7.21717 13.093M7.21717 10.907C7.39717 11.231 7.50017 11.603 7.50017 12C7.50017 12.397 7.39717 12.77 7.21717 13.093M7.21717 10.907L16.7832 5.59301M7.21717 13.093L16.7832 18.407M16.7832 18.407C16.6396 18.6654 16.5484 18.9495 16.5147 19.2431C16.4809 19.5368 16.5054 19.8342 16.5866 20.1184C16.6678 20.4026 16.8042 20.668 16.9879 20.8995C17.1717 21.131 17.3993 21.324 17.6577 21.4675C17.916 21.611 18.2002 21.7023 18.4938 21.736C18.7874 21.7697 19.0848 21.7453 19.369 21.6641C19.6532 21.5829 19.9186 21.4465 20.1501 21.2627C20.3816 21.079 20.5746 20.8514 20.7182 20.593C21.0081 20.0712 21.0788 19.4556 20.9148 18.8816C20.7508 18.3077 20.3655 17.8224 19.8437 17.5325C19.3219 17.2426 18.7063 17.1719 18.1323 17.3359C17.5584 17.4999 17.0731 17.8852 16.7832 18.407V18.407ZM16.7832 5.59301C16.9234 5.85715 17.1149 6.09067 17.3465 6.27994C17.5781 6.4692 17.845 6.6104 18.1318 6.69528C18.4186 6.78017 18.7194 6.80703 19.0166 6.7743C19.3139 6.74157 19.6017 6.64991 19.8631 6.50467C20.1245 6.35943 20.3544 6.16353 20.5392 5.92842C20.7241 5.69331 20.8602 5.42372 20.9396 5.13539C21.019 4.84707 21.0402 4.5458 21.0018 4.2492C20.9635 3.95261 20.8663 3.66664 20.7162 3.40801C20.4202 2.89835 19.9362 2.52515 19.368 2.36862C18.7998 2.2121 18.1929 2.28475 17.6777 2.57096C17.1625 2.85717 16.7802 3.33409 16.6129 3.8992C16.4457 4.46431 16.5068 5.07249 16.7832 5.59301V5.59301Z" stroke="black" stroke-width="1.5" stroke-linecap="round" stroke-linejoin="round"/>
</svg>
