<?xml version="1.0" encoding="utf-8"?>
<!-- Generator: Adobe Illustrator 23.0.3, SVG Export Plug-In . SVG Version: 6.00 Build 0)  -->
<svg version="1.1" id="Layer_1" xmlns="http://www.w3.org/2000/svg" xmlns:xlink="http://www.w3.org/1999/xlink" x="0px" y="0px"
	 viewBox="0 0 24 24" style="enable-background:new 0 0 24 24;" xml:space="preserve">
<style type="text/css">
	.st0{fill:none;stroke:#F18989;stroke-width:1.5;stroke-linecap:round;stroke-linejoin:round;}
</style>
<path class="st0" d="M12.5,17.1c-0.1,0.6-0.1,1.2-0.3,1.8c-0.3,0.9-0.9,1.4-1.6,1.3c-0.3,0-0.8-0.2-1.1-0.5l-3.8-3.1H3.6
	c-1,0-1.7-0.7-1.8-1.8c-0.2-1.4-0.2-3.9,0-5.4c0.1-1,0.8-1.8,1.8-1.8h2.1l3.7-3c0.3-0.3,0.9-0.5,1.2-0.5c0.7,0,1.4,0.5,1.6,1.3
	c0.1,0.5,0.2,1.2,0.3,1.8C12.6,8.7,12.6,15.8,12.5,17.1z"/>
<path class="st0" d="M16.4,7.1c0.9,1.3,1.5,3.1,1.5,5s-0.5,3.7-1.5,5"/>
<path class="st0" d="M19.9,4c1.5,2.1,2.3,4.9,2.3,8.1s-0.9,6-2.3,8.1"/>
</svg>
