<svg width="20" height="19" viewBox="0 0 20 19" fill="none" xmlns="http://www.w3.org/2000/svg">
<path d="M2 2.75025C2 2.02084 2.28973 1.3213 2.80546 0.805529C3.32118 0.289757 4.02065 0 4.75 0H11.25C11.9793 0 12.6788 0.289757 13.1945 0.805529C13.7103 1.3213 14 2.02084 14 2.75025V3.2913L15.99 1.76916C16.813 1.1391 18 1.72616 18 2.76225V9.23883C18 10.2749 16.813 10.861 15.99 10.2319L14 8.71079V9.25183C13.9997 9.98107 13.7099 10.6804 13.1942 11.1959C12.6785 11.7115 11.9792 12.0011 11.25 12.0011H4.75C4.02065 12.0011 3.32118 11.7113 2.80546 11.1956C2.28973 10.6798 2 9.98024 2 9.25083V2.75025ZM4.75 1.50014C4.06 1.50014 3.5 2.06019 3.5 2.75025V9.25083C3.5 9.9409 4.06 10.5009 4.75 10.5009H11.25C11.94 10.5009 12.5 9.9409 12.5 9.25083V2.75025C12.5 2.06019 11.94 1.50014 11.25 1.50014H4.75ZM14 6.82061L16.5 8.73279V3.26829L14 5.17947V6.82161V6.82061Z" fill="#C37D6F"/>
<path d="M16.3628 13.1392C15.4128 12.9071 14.2328 12.7261 12.9048 12.6171C13.5212 12.3131 14.0427 11.8462 14.4128 11.267C15.2598 11.376 16.0368 11.516 16.7178 11.681C17.5858 11.8921 18.3408 12.1551 18.8968 12.4751C19.3968 12.7631 19.9998 13.2512 19.9998 14.0012C19.9998 14.4713 19.7548 14.8403 19.4828 15.1003C19.2118 15.3594 18.8548 15.5704 18.4658 15.7464C17.6838 16.1014 16.6118 16.3865 15.3738 16.5945C15.1775 16.6275 14.9762 16.5812 14.8141 16.4658C14.6519 16.3503 14.5423 16.1752 14.5093 15.9789C14.4763 15.7826 14.5226 15.5813 14.638 15.4191C14.7534 15.257 14.9285 15.1474 15.1248 15.1143C16.3038 14.9163 17.2318 14.6593 17.8458 14.3803C18.1558 14.2403 18.3458 14.1123 18.4458 14.0152L18.4558 14.0072L18.4618 14.0012C18.3681 13.9121 18.2629 13.8361 18.1488 13.7752C17.7688 13.5572 17.1688 13.3352 16.3628 13.1392V13.1392ZM18.5088 13.9432L18.5108 13.9402L18.5088 13.9432Z" fill="#C37D6F"/>
<path d="M1.103 12.4752C1.45086 12.2814 1.81613 12.1207 2.194 11.9951C2.774 12.5362 3.527 12.8952 4.36 12.9812C4.107 13.0312 3.865 13.0832 3.637 13.1392C2.83 13.3352 2.231 13.5573 1.851 13.7753C1.675 13.8763 1.584 13.9533 1.538 14.0013C1.584 14.0493 1.675 14.1263 1.851 14.2273C2.231 14.4453 2.831 14.6674 3.637 14.8634C5.225 15.2504 7.452 15.4974 9.941 15.5014L9.222 14.7814C9.1524 14.7116 9.09722 14.6289 9.0596 14.5378C9.02198 14.4467 9.00267 14.3491 9.00276 14.2506C9.00285 14.1521 9.02235 14.0545 9.06014 13.9635C9.09793 13.8725 9.15327 13.7899 9.223 13.7203C9.29273 13.6507 9.37549 13.5955 9.46655 13.5579C9.55761 13.5202 9.65518 13.5009 9.75371 13.501C9.85223 13.5011 9.94977 13.5206 10.0408 13.5584C10.1317 13.5962 10.2144 13.6515 10.284 13.7213L12.281 15.7215C12.4215 15.8621 12.5003 16.0527 12.5003 16.2515C12.5003 16.4503 12.4215 16.6409 12.281 16.7815L10.283 18.7787C10.1408 18.9112 9.95278 18.9833 9.75848 18.9799C9.56418 18.9765 9.37879 18.8978 9.24138 18.7603C9.10397 18.6229 9.02525 18.4375 9.02182 18.2432C9.0184 18.0489 9.09052 17.8608 9.223 17.7186L9.939 17.0016C7.367 16.9976 5.016 16.7425 3.282 16.3215C2.414 16.1105 1.659 15.8475 1.103 15.5274C0.603 15.2394 0 14.7514 0 14.0013C0 13.2512 0.603 12.7632 1.103 12.4752Z" fill="#C37D6F"/>
</svg>
