<svg width="1280" height="800" viewBox="0 0 1280 800" fill="none" xmlns="http://www.w3.org/2000/svg">
<path d="M1280 0H0V800H1280V0Z" fill="#E6E6E6"/>
<g opacity="0.3">
<path d="M710.57 499.38C642.075 539.035 588 570.45 519.505 610.105C511.78 614.74 504.055 620.405 495.3 623.495C486.545 626.585 477.275 627.615 468.005 629.675C510.235 587.445 596.755 499.895 596.755 499.895H660.1C660.1 499.38 676.065 499.38 710.57 499.38Z" fill="#FF8181"/>
<path d="M590.575 378.87L560.705 436.55H642.075L626.11 465.905H523.11L507.145 436.55H522.08L552.465 379.385C552.465 378.87 577.7 378.87 590.575 378.87Z" fill="#FBC1C1"/>
<path d="M439.68 499.38C494.785 499.38 596.755 499.38 596.755 499.38C596.755 499.38 597.785 498.35 594.18 502.47C551.95 544.7 510.235 586.93 468.005 629.675C451.01 627.615 439.165 615.255 439.165 596.715C438.65 561.18 439.68 534.915 439.68 499.38Z" fill="url(#paint0_linear_689_305)"/>
<path d="M710.57 499.38H660.1L715.72 400.5L758.98 335.61C762.585 337.67 769.28 341.79 772.885 343.85C772.885 383.505 772.885 423.675 772.885 463.33C756.92 472.6 710.57 499.38 710.57 499.38Z" fill="url(#paint1_linear_689_305)"/>
<path d="M441.74 319.645C442.255 281.535 440.71 243.94 443.8 206.345C446.89 167.72 472.125 166.69 497.875 176.99C517.445 185.23 534.44 198.62 552.465 209.435" fill="#FF8181"/>
<path d="M541.65 301.62V220.25L552.465 209.95L676.065 285.655L659.07 302.135C659.07 302.135 526.715 302.135 521.565 302.135" fill="url(#paint2_linear_689_305)"/>
<path d="M486.03 400.5L506.63 436.55L439.68 499.38L441.74 319.645L486.03 400.5Z" fill="url(#paint3_linear_689_305)"/>
<path d="M758.98 335.61L715.72 400.5L695.635 365.48L679.155 335.095H758.98V335.61Z" fill="#E86363"/>
<path d="M772.885 463.33C772.885 423.675 772.885 383.505 772.885 343.85C788.85 353.635 805.33 362.39 820.78 373.205C846.53 391.23 846.015 419.04 819.75 436.55C804.815 446.335 788.85 454.575 772.885 463.33Z" fill="#FF8181"/>
<path d="M541.65 301.62L486.03 400.5L441.225 319.645L459.765 301.105L541.65 301.62Z" fill="url(#paint4_radial_689_305)"/>
<path d="M676.065 285.14L758.98 335.61H679.155L659.07 301.62C659.07 301.62 670.4 290.805 676.065 285.14Z" fill="#EBACAC"/>
<path d="M459.765 301.105H541.65V220.25" fill="#EBACAC"/>
<path d="M507.145 436.55L439.68 499.38H542.165L507.145 436.55Z" fill="#E86363"/>
<path d="M695.635 365.48H679.67L649.285 422.645C649.285 422.645 623.535 422.645 610.66 422.645C610.66 422.645 630.23 384.535 640.015 365.48H558.645L575.64 335.095H679.155L695.635 365.48Z" fill="#FBC1C1"/>
<g filter="url(#filter0_d_689_305)">
<path d="M486.03 400.5L507.145 436.55H522.08L552.465 378.87H590.575L560.705 436.55H642.075L626.11 465.39H522.08L542.165 499.38H660.1L715.72 400.5L695.635 365.48H679.67L649.285 423.16H610.66L640.015 365.48H558.645L575.64 335.61H679.155L659.07 301.62H541.65L486.03 400.5Z" fill="#DC0A0A"/>
</g>
</g>
<defs>
<filter id="filter0_d_689_305" x="481.03" y="296.62" width="239.69" height="207.76" filterUnits="userSpaceOnUse" color-interpolation-filters="sRGB">
<feFlood flood-opacity="0" result="BackgroundImageFix"/>
<feColorMatrix in="SourceAlpha" type="matrix" values="0 0 0 0 0 0 0 0 0 0 0 0 0 0 0 0 0 0 127 0" result="hardAlpha"/>
<feOffset/>
<feGaussianBlur stdDeviation="2.5"/>
<feComposite in2="hardAlpha" operator="out"/>
<feColorMatrix type="matrix" values="0 0 0 0 0 0 0 0 0 0 0 0 0 0 0 0 0 0 0.35 0"/>
<feBlend mode="normal" in2="BackgroundImageFix" result="effect1_dropShadow_689_305"/>
<feBlend mode="normal" in="SourceGraphic" in2="effect1_dropShadow_689_305" result="shape"/>
</filter>
<linearGradient id="paint0_linear_689_305" x1="439.129" y1="564.478" x2="596.881" y2="564.478" gradientUnits="userSpaceOnUse">
<stop offset="0.000408412" stop-color="#FBC1C1"/>
<stop offset="1" stop-color="#E7E0D5"/>
</linearGradient>
<linearGradient id="paint1_linear_689_305" x1="773.194" y1="417.497" x2="660.042" y2="417.497" gradientUnits="userSpaceOnUse">
<stop stop-color="#F18989"/>
<stop offset="0.5946" stop-color="#FBC1C1"/>
</linearGradient>
<linearGradient id="paint2_linear_689_305" x1="676.062" y1="255.565" x2="521.359" y2="255.565" gradientUnits="userSpaceOnUse">
<stop offset="0.000408412" stop-color="#FBC1C1"/>
<stop offset="1" stop-color="#F18989"/>
</linearGradient>
<linearGradient id="paint3_linear_689_305" x1="507.066" y1="409.603" x2="439.726" y2="409.603" gradientUnits="userSpaceOnUse">
<stop offset="0.000408412" stop-color="#FBC1C1"/>
<stop offset="1" stop-color="#F18989"/>
</linearGradient>
<radialGradient id="paint4_radial_689_305" cx="0" cy="0" r="1" gradientUnits="userSpaceOnUse" gradientTransform="translate(491.614 350.905) rotate(99.5545) scale(39.8477)">
<stop stop-color="#F18989"/>
<stop offset="1" stop-color="#E86363"/>
</radialGradient>
</defs>
</svg>
