<svg width="100" height="100" viewBox="0 0 100 100" fill="none" xmlns="http://www.w3.org/2000/svg">
<path d="M63.8 69.2C50.5 76.9 40 83 26.7 90.7C25.2 91.6 23.7 92.7 22 93.3C20.3 93.9 18.5 94.1 16.7 94.5C24.9 86.3 41.7 69.3 41.7 69.3H54C54 69.2 57.1 69.2 63.8 69.2Z" fill="#FF8181"/>
<path d="M40.5 45.8L34.7 57H50.5L47.4 62.7H27.4L24.3 57H27.2L33.1 45.9C33.1 45.8 38 45.8 40.5 45.8Z" fill="#FBC1C1"/>
<path d="M11.2 69.2C21.9 69.2 41.7 69.2 41.7 69.2C41.7 69.2 41.9 69 41.2 69.8C33 78 24.9 86.2 16.7 94.5C13.4 94.1 11.1 91.7 11.1 88.1C11 81.2 11.2 76.1 11.2 69.2Z" fill="url(#paint0_linear_683_288)"/>
<path d="M63.8 69.2H54L64.8 50L73.2 37.4C73.9 37.8 75.2 38.6 75.9 39C75.9 46.7 75.9 54.5 75.9 62.2C72.8 64 63.8 69.2 63.8 69.2Z" fill="url(#paint1_linear_683_288)"/>
<path d="M11.6 34.3C11.7 26.9 11.4 19.6 12 12.3C12.6 4.79996 17.5 4.59996 22.5 6.59996C26.3 8.19997 29.6 10.8 33.1 12.9" fill="#FF8181"/>
<path d="M31 30.8V15L33.1 13L57.1 27.7L53.8 30.9C53.8 30.9 28.1 30.9 27.1 30.9" fill="url(#paint2_linear_683_288)"/>
<path d="M20.2 49.9999L24.2 56.9999L11.2 69.1999L11.6 34.2999L20.2 49.9999Z" fill="url(#paint3_linear_683_288)"/>
<path d="M73.2 37.3999L64.8 49.9999L60.9 43.1999L57.7 37.2999H73.2V37.3999Z" fill="#E86363"/>
<path d="M75.9 62.2C75.9 54.5 75.9 46.7 75.9 39C79 40.9 82.2 42.6 85.2 44.7C90.2 48.2 90.1 53.6 85 57C82.1 58.9 79 60.5 75.9 62.2Z" fill="#FF8181"/>
<path d="M31 30.7999L20.2 49.9999L11.5 34.2999L15.1 30.7L31 30.7999Z" fill="url(#paint4_radial_683_288)"/>
<path d="M57.1 27.6L73.2 37.4H57.7L53.8 30.8C53.8 30.8 56 28.7 57.1 27.6Z" fill="#EBACAC"/>
<path d="M15.1 30.7H31V15" fill="#EBACAC"/>
<path d="M24.3 57L11.2 69.2H31.1L24.3 57Z" fill="#E86363"/>
<path d="M60.9 43.1999H57.8L51.9 54.2999C51.9 54.2999 46.9 54.2999 44.4 54.2999C44.4 54.2999 48.2 46.8999 50.1 43.1999H34.3L37.6 37.2999H57.7L60.9 43.1999Z" fill="#FBC1C1"/>
<g filter="url(#filter0_d_683_288)">
<path d="M20.2 50L24.3 57H27.2L33.1 45.8H40.5L34.7 57H50.5L47.4 62.6H27.2L31.1 69.2H54L64.8 50L60.9 43.2001H57.8L51.9 54.4001H44.4L50.1 43.2001H34.3L37.6 37.4001H57.7L53.8 30.8H31L20.2 50Z" fill="#DC0A0A"/>
</g>
<defs>
<filter id="filter0_d_683_288" x="15.2" y="25.8" width="54.6" height="48.4" filterUnits="userSpaceOnUse" color-interpolation-filters="sRGB">
<feFlood flood-opacity="0" result="BackgroundImageFix"/>
<feColorMatrix in="SourceAlpha" type="matrix" values="0 0 0 0 0 0 0 0 0 0 0 0 0 0 0 0 0 0 127 0" result="hardAlpha"/>
<feOffset/>
<feGaussianBlur stdDeviation="2.5"/>
<feComposite in2="hardAlpha" operator="out"/>
<feColorMatrix type="matrix" values="0 0 0 0 0 0 0 0 0 0 0 0 0 0 0 0 0 0 0.35 0"/>
<feBlend mode="normal" in2="BackgroundImageFix" result="effect1_dropShadow_683_288"/>
<feBlend mode="normal" in="SourceGraphic" in2="effect1_dropShadow_683_288" result="shape"/>
</filter>
<linearGradient id="paint0_linear_683_288" x1="11.093" y1="81.8404" x2="41.7245" y2="81.8404" gradientUnits="userSpaceOnUse">
<stop offset="0.000408412" stop-color="#FBC1C1"/>
<stop offset="1" stop-color="#E7E0D5"/>
</linearGradient>
<linearGradient id="paint1_linear_683_288" x1="75.96" y1="53.3004" x2="53.9887" y2="53.3004" gradientUnits="userSpaceOnUse">
<stop stop-color="#F18989"/>
<stop offset="0.5946" stop-color="#FBC1C1"/>
</linearGradient>
<linearGradient id="paint2_linear_683_288" x1="57.0994" y1="21.8573" x2="27.06" y2="21.8573" gradientUnits="userSpaceOnUse">
<stop offset="0.000408412" stop-color="#FBC1C1"/>
<stop offset="1" stop-color="#F18989"/>
</linearGradient>
<linearGradient id="paint3_linear_683_288" x1="24.2846" y1="51.7675" x2="11.209" y2="51.7675" gradientUnits="userSpaceOnUse">
<stop offset="0.000408412" stop-color="#FBC1C1"/>
<stop offset="1" stop-color="#F18989"/>
</linearGradient>
<radialGradient id="paint4_radial_683_288" cx="0" cy="0" r="1" gradientUnits="userSpaceOnUse" gradientTransform="translate(21.2843 40.3698) rotate(99.5545) scale(7.73742)">
<stop stop-color="#F18989"/>
<stop offset="1" stop-color="#E86363"/>
</radialGradient>
</defs>
</svg>
