<?xml version="1.0" encoding="utf-8"?>
<!-- Generator: Adobe Illustrator 23.0.3, SVG Export Plug-In . SVG Version: 6.00 Build 0)  -->
<svg version="1.1" id="Layer_1" xmlns="http://www.w3.org/2000/svg" xmlns:xlink="http://www.w3.org/1999/xlink" x="0px" y="0px"
	 viewBox="0 0 100 100" style="enable-background:new 0 0 100 100;" xml:space="preserve">
<style type="text/css">
	.st0{fill:#FFFFFF;}
</style>
<g>
	<path class="st0" d="M55.67,71.58c0.36,8.55,0.66,15.62,0.94,22.69c0.09,2.21-0.21,2.52-2.38,2.54c-2.85,0.02-5.71,0.02-8.56,0
		c-2.09-0.02-2.48-0.44-2.37-2.57c0.73-14.01,1.23-28.02,1.56-42.04c0.04-1.7-0.34-2.24-2.1-2.09c-5.75,0.51-11.49,1-17.18,1.98
		c-1.84,0.32-2.22,0.02-2.24-1.87c-0.02-2.92-0.02-5.83,0-8.75c0.01-2.12,0.3-2.43,2.39-2.18c5.67,0.68,11.37,1.02,17.06,1.41
		c1.56,0.11,2.15-0.15,2.07-1.94c-0.26-6.33-0.52-12.64-1.27-18.94c-0.33-2.78-0.16-2.92,2.72-2.92c2.67,0,5.34-0.01,8.01,0
		c2.03,0.01,2.39,0.44,2.16,2.46c-0.75,6.48-1.08,12.98-1.4,19.49c-0.08,1.65,0.46,1.95,1.96,1.85c5.63-0.4,11.27-0.7,16.88-1.39
		c2.45-0.3,2.73-0.01,2.74,2.41c0.01,2.79,0.02,5.59,0,8.38c-0.01,1.95-0.46,2.3-2.35,1.98c-5.75-0.98-11.56-1.52-17.37-1.97
		c-1.42-0.11-1.93,0.19-1.86,1.75C55.35,58.92,55.51,66,55.67,71.58z"/>
	<path class="st0" d="M64.45,21.39c0,1.55-0.06,3.11,0.02,4.65c0.05,1.06-0.32,1.37-1.37,1.39c-2.91,0.04-2.91,0.09-2.91-2.8
		c0-1.3,0.09-2.62-0.02-3.91c-0.14-1.49,0.27-2.23,1.9-1.97c0.91,0.15,1.46-0.03,1.45-1.25c-0.1-7.2-6.13-13.25-13.37-13.31
		c-7.31-0.07-13.42,5.75-13.72,12.95c-0.05,1.33,0.32,1.84,1.62,1.62c1.43-0.24,1.86,0.38,1.75,1.76c-0.11,1.29-0.02,2.61-0.02,3.91
		c0,3.24-0.11,3.32-3.3,2.99c-0.66-0.07-1.06-0.22-1.03-0.97c0.12-3.9-0.4-7.83,0.38-11.7c1.41-6.98,8.13-12.08,15.07-11.54
		c7.4,0.58,13.26,6.57,13.56,13.9c0.06,1.43,0.01,2.85,0.01,4.28C64.44,21.39,64.45,21.39,64.45,21.39z"/>
</g>
</svg>
